<svg width="69" height="69" viewBox="0 0 69 69" fill="none" xmlns="http://www.w3.org/2000/svg">
<path d="M30.9796 4.22449C30.9796 1.89137 32.871 0 35.2041 0C37.5372 0 39.4286 1.89137 39.4286 4.22449V64.7755C39.4286 67.1086 37.5372 69 35.2041 69C32.871 69 30.9796 67.1086 30.9796 64.7755V4.22449Z" fill="white"/>
<path d="M64.7755 30.9796C67.1086 30.9796 69 32.871 69 35.2041C69 37.5372 67.1086 39.4286 64.7755 39.4286L4.22449 39.4286C1.89137 39.4286 -1.01984e-07 37.5372 0 35.2041C1.01984e-07 32.871 1.89137 30.9796 4.22449 30.9796L64.7755 30.9796Z" fill="white"/>
</svg>
